<svg width="532" height="399" viewBox="0 0 532 399" fill="none" xmlns="http://www.w3.org/2000/svg">
<g filter="url(#filter0_d_1141_319)">
<path d="M4 343.605H528V343.867H4V343.605Z" fill="#E6E6E6"/>
<path d="M132.212 354.719H168.263V354.981H132.212V354.719Z" fill="#E6E6E6"/>
<path d="M411.63 354.845H431.919V355.107H411.63V354.845Z" fill="#E6E6E6"/>
<path d="M264.952 354.236H306.076V354.499H264.952V354.236Z" fill="#E6E6E6"/>
<path d="M307.123 350.5H325.505V350.762H307.123V350.5Z" fill="#E6E6E6"/>
<path d="M83.0611 350.637H138.595V350.899H83.0611V350.637Z" fill="#E6E6E6"/>
<path d="M279.624 296.797H481.982C483.568 296.795 485.087 296.162 486.207 295.038C487.327 293.915 487.956 292.392 487.956 290.805V5.94011C487.942 4.3617 487.307 2.85248 486.188 1.74026C485.07 0.628049 483.558 0.00267339 481.982 -3.05176e-05H279.624C278.037 -3.05176e-05 276.515 0.631333 275.393 1.75517C274.27 2.879 273.64 4.40325 273.64 5.99259V290.805C273.64 292.394 274.27 293.918 275.393 295.042C276.515 296.166 278.037 296.797 279.624 296.797ZM481.982 0.209869C483.498 0.21265 484.951 0.817595 486.022 1.89192C487.092 2.96625 487.694 4.42218 487.694 5.94011V290.805C487.694 292.323 487.092 293.779 486.022 294.853C484.951 295.927 483.498 296.532 481.982 296.535H279.624C278.107 296.532 276.653 295.928 275.581 294.854C274.508 293.779 273.905 292.324 273.902 290.805V5.94011C273.905 4.42121 274.508 2.96531 275.581 1.89128C276.653 0.817254 278.107 0.212644 279.624 0.209869H481.982Z" fill="#E6E6E6"/>
<path d="M52.931 296.797H255.3C256.886 296.795 258.407 296.162 259.528 295.039C260.65 293.916 261.281 292.393 261.284 290.805V5.94011C261.267 4.36074 260.63 2.85153 259.51 1.73961C258.39 0.627682 256.877 0.0026439 255.3 -3.05176e-05H52.931C51.3566 0.00543158 49.8478 0.632027 48.7316 1.74395C47.6154 2.85586 46.9817 4.36351 46.9679 5.94011V290.805C46.9679 292.39 47.5955 293.911 48.7132 295.035C49.8309 296.158 51.3476 296.792 52.931 296.797ZM255.3 0.209869C256.817 0.212644 258.27 0.817254 259.343 1.89128C260.415 2.96531 261.019 4.42121 261.022 5.94011V290.805C261.019 292.324 260.415 293.779 259.343 294.854C258.27 295.928 256.817 296.532 255.3 296.535H52.931C51.4143 296.532 49.9605 295.928 48.888 294.854C47.8155 293.779 47.2117 292.324 47.209 290.805V5.94011C47.2117 4.42121 47.8155 2.96531 48.888 1.89128C49.9605 0.817254 51.4143 0.212644 52.931 0.209869H255.3Z" fill="#E6E6E6"/>
<path d="M84.6645 19.5519H227.486V186.212H84.6645V19.5519Z" fill="#E0E0E0"/>
<path d="M80.7868 19.5519H225.673V186.212H80.7868V19.5519Z" fill="#F5F5F5"/>
<path d="M84.6645 186.212H227.486V195.552H84.6645V186.212Z" fill="#E0E0E0"/>
<path d="M63.0338 186.212H199.431V195.552H63.0338V186.212Z" fill="#F5F5F5"/>
<path d="M86.2156 179.138L86.2156 26.6151L220.234 26.6151V179.138H86.2156Z" fill="#FAFAFA"/>
<path d="M200.961 179.138L169.06 26.6255H127.245L159.146 179.138H200.961Z" fill="white"/>
<path d="M152.376 179.138L120.485 26.6255H101.6L133.491 179.138H152.376Z" fill="white"/>
<path d="M231.563 19.3106V78.6491H215.843C215.843 78.6491 187.683 60.2514 181.259 22.3961C181.107 21.4946 181.152 20.5707 181.393 19.6886C181.633 18.8066 182.062 17.9875 182.651 17.2884C183.239 16.5893 183.973 16.0269 184.8 15.6402C185.627 15.2536 186.529 15.0521 187.442 15.0496H227.266C227.828 15.0455 228.385 15.1526 228.905 15.3647C229.426 15.5769 229.899 15.8899 230.299 16.2858C230.698 16.6818 231.015 17.1528 231.232 17.6719C231.449 18.191 231.561 18.7479 231.563 19.3106Z" fill="#E0E0E0"/>
<path d="M231.563 173.765V83.4348H215.843C215.843 83.4348 206.83 101.675 197.849 122.644C195.46 128.223 194.491 134.309 195.03 140.355C195.569 146.401 197.598 152.219 200.936 157.286C204.273 162.354 208.815 166.512 214.153 169.388C219.491 172.264 225.459 173.768 231.521 173.765H231.563Z" fill="#E0E0E0"/>
<path d="M216.346 78.6492H230.986C231.854 78.6492 232.558 79.354 232.558 80.2235V81.8607C232.558 82.7301 231.854 83.4349 230.986 83.4349H216.346C215.477 83.4349 214.774 82.7301 214.774 81.8607V80.2235C214.774 79.354 215.477 78.6492 216.346 78.6492Z" fill="#F5F5F5"/>
<path d="M76.312 19.3107V78.6492H92.032C92.032 78.6492 120.202 60.2515 126.616 22.3962C126.768 21.4955 126.723 20.5725 126.483 19.6912C126.243 18.8099 125.815 17.9914 125.227 17.2925C124.64 16.5935 123.908 16.0309 123.082 15.6436C122.256 15.2564 121.355 15.0537 120.443 15.0497H80.6193C80.0565 15.0442 79.4982 15.1502 78.9766 15.3618C78.4549 15.5733 77.9802 15.8861 77.5798 16.2822C77.1794 16.6783 76.8613 17.1498 76.6437 17.6696C76.4261 18.1893 76.3134 18.7471 76.312 19.3107Z" fill="#E0E0E0"/>
<path d="M76.2072 173.786V83.4559H91.9272C91.9272 83.4559 100.94 101.686 109.932 122.665C112.304 128.246 113.26 134.328 112.713 140.369C112.167 146.41 110.135 152.221 106.799 157.284C103.463 162.346 98.9275 166.503 93.5967 169.383C88.2659 172.262 82.3059 173.775 76.2491 173.786H76.2072Z" fill="#E0E0E0"/>
<path d="M91.5603 83.4348H76.9198C76.0516 83.4348 75.3478 82.73 75.3478 81.8606V80.2234C75.3478 79.3539 76.0516 78.6491 76.9198 78.6491H91.5603C92.4285 78.6491 93.1323 79.3539 93.1323 80.2234V81.8606C93.1323 82.73 92.4285 83.4348 91.5603 83.4348Z" fill="#F5F5F5"/>
<path d="M317.467 92.9747H380.379V161.937H317.467V92.9747Z" fill="#E0E0E0"/>
<path d="M308.622 92.9747H376.973V161.937H308.622V92.9747Z" fill="#FAFAFA"/>
<path d="M315.675 154.895V100.048H369.93V154.895H315.675Z" fill="white"/>
<path d="M357.176 127.461C357.173 124.025 355.808 120.731 353.381 118.303C350.954 115.875 347.664 114.51 344.233 114.51H341.32C337.891 114.513 334.603 115.879 332.178 118.307C329.754 120.735 328.39 124.027 328.387 127.461C328.387 129.162 328.722 130.846 329.372 132.417C330.022 133.989 330.974 135.416 332.175 136.619C333.376 137.821 334.802 138.775 336.371 139.426C337.94 140.077 339.621 140.412 341.32 140.412H344.233C345.932 140.413 347.615 140.079 349.185 139.429C350.756 138.779 352.182 137.825 353.384 136.623C354.586 135.42 355.54 133.992 356.19 132.42C356.841 130.848 357.176 129.163 357.176 127.461Z" fill="#F5F5F5"/>
<path d="M431.332 109.431C440.088 109.431 448.484 105.948 454.675 99.7481C460.866 93.5484 464.344 85.1396 464.344 76.3718C464.344 67.604 460.866 59.1953 454.675 52.9955C448.484 46.7957 440.088 43.3127 431.332 43.3127H425.369V109.431H431.332Z" fill="#E0E0E0"/>
<path d="M425.369 109.431C407.149 109.431 392.378 94.6392 392.378 76.3927C392.378 58.1463 407.149 43.3546 425.369 43.3546C443.59 43.3546 458.36 58.1463 458.36 76.3927C458.36 94.6392 443.59 109.431 425.369 109.431Z" fill="#FAFAFA"/>
<path d="M425.369 101.308C411.629 101.308 400.49 90.153 400.49 76.3928C400.49 62.6326 411.629 51.4778 425.369 51.4778C439.11 51.4778 450.249 62.6326 450.249 76.3928C450.249 90.153 439.11 101.308 425.369 101.308Z" fill="white"/>
<path d="M415.12 85.7123L427.34 77.1799L423.462 58.2994L420.004 59.0131L423.41 75.6056L413.097 82.8052L415.12 85.7123Z" fill="#E0E0E0"/>
<path d="M158.748 225.641H203.717V347.32H158.748V225.641Z" fill="#E0E0E0"/>
<path d="M170.758 347.32H158.748V327.17H183.344L170.758 347.32Z" fill="#FAFAFA"/>
<path d="M428.346 225.641H473.315V347.32H428.346V225.641Z" fill="#E0E0E0"/>
<path d="M158.737 225.641H438.826V340.383H158.737V225.641Z" fill="#FAFAFA"/>
<path d="M426.816 347.32H438.826V327.17H414.229L426.816 347.32Z" fill="#FAFAFA"/>
<path d="M168.054 235.507H429.509V277.738H168.054V235.507Z" fill="#F0F0F0"/>
<path d="M168.054 287.95H429.509V330.182H168.054V287.95Z" fill="#F0F0F0"/>
<path d="M206.39 235.507H429.509V277.738H206.39V235.507Z" fill="#E0E0E0"/>
<path d="M360.802 241.206H374.374C374.374 241.206 372.016 249.36 372.016 254.156C372.016 258.953 382.338 277.749 367.583 277.749C352.827 277.749 363.16 258.953 363.16 254.156C363.16 249.36 360.802 241.206 360.802 241.206Z" fill="#FAFAFA"/>
<path d="M414.229 255.374V262.794C414.229 271.022 406.285 277.749 396.581 277.749H387.83C378.126 277.749 370.182 271.022 370.182 262.794V255.374H414.229Z" fill="#F0F0F0"/>
<path d="M206.39 287.95H429.509V330.182H206.39V287.95Z" fill="#E0E0E0"/>
<path d="M304.2 329.426H283.302V294.572H304.2V329.426Z" fill="white"/>
<path d="M286.562 329.961H285.136V295.107H286.562V329.961Z" fill="#E6E6E6"/>
<path d="M285.032 330.224H281.385C281.107 330.224 280.882 329.998 280.882 329.72V295.339C280.882 295.06 281.107 294.835 281.385 294.835H285.032C285.309 294.835 285.535 295.06 285.535 295.339V329.72C285.535 329.998 285.309 330.224 285.032 330.224Z" fill="#EBEBEB"/>
<path d="M285.535 311.186H280.882V302.916H285.535V311.186Z" fill="white"/>
<path d="M285.535 318.847H280.882V313.747H285.535V318.847Z" fill="white"/>
<path d="M305.268 330.224H286.436C286.158 330.224 285.933 329.998 285.933 329.72V295.339C285.933 295.06 286.158 294.835 286.436 294.835H305.268C305.546 294.835 305.772 295.06 305.772 295.339V329.72C305.772 329.998 305.546 330.224 305.268 330.224Z" fill="#EBEBEB"/>
<path d="M314.397 329.332H291.341V290.878H314.397V329.332Z" fill="white"/>
<path d="M294.914 329.94H293.353V291.487H294.914V329.94Z" fill="#E6E6E6"/>
<path d="M293.237 330.234H289.213C288.906 330.234 288.658 329.985 288.658 329.678V291.749C288.658 291.442 288.906 291.193 289.213 291.193H293.237C293.544 291.193 293.793 291.442 293.793 291.749V329.678C293.793 329.985 293.544 330.234 293.237 330.234Z" fill="#F0F0F0"/>
<path d="M293.793 304.962H288.658V303.63H293.793V304.962Z" fill="white"/>
<path d="M293.793 308.814H288.658V307.481H293.793V308.814Z" fill="white"/>
<path d="M293.793 312.666H288.658V311.333H293.793V312.666Z" fill="white"/>
<path d="M315.56 330.234H294.789C294.482 330.234 294.233 329.985 294.233 329.678V291.749C294.233 291.442 294.482 291.193 294.789 291.193H315.56C315.867 291.193 316.115 291.442 316.115 291.749V329.678C316.115 329.985 315.867 330.234 315.56 330.234Z" fill="#F0F0F0"/>
<path d="M342.797 316.832C342.795 318.003 343.14 319.149 343.789 320.124C344.437 321.098 345.359 321.859 346.439 322.308C347.519 322.758 348.708 322.877 349.855 322.649C351.002 322.422 352.056 321.859 352.884 321.032C353.712 320.205 354.276 319.15 354.505 318.001C354.733 316.853 354.617 315.662 354.17 314.58C353.723 313.498 352.965 312.573 351.993 311.922C351.021 311.271 349.878 310.924 348.708 310.924C347.142 310.924 345.641 311.546 344.532 312.654C343.424 313.761 342.8 315.264 342.797 316.832Z" fill="#FAFAFA"/>
<path d="M352.869 319.655C352.869 320.571 353.14 321.466 353.648 322.227C354.155 322.988 354.877 323.581 355.722 323.931C356.566 324.282 357.496 324.373 358.392 324.195C359.289 324.016 360.112 323.575 360.758 322.928C361.405 322.281 361.845 321.456 362.023 320.558C362.202 319.661 362.11 318.73 361.76 317.884C361.41 317.039 360.818 316.316 360.058 315.807C359.298 315.299 358.404 315.027 357.49 315.027C356.265 315.03 355.092 315.518 354.225 316.386C353.359 317.253 352.871 318.429 352.869 319.655Z" fill="#FAFAFA"/>
<path d="M332.684 319.655C332.684 320.826 333.031 321.97 333.68 322.944C334.33 323.917 335.253 324.676 336.333 325.124C337.413 325.572 338.601 325.689 339.748 325.461C340.895 325.232 341.948 324.669 342.774 323.841C343.601 323.013 344.164 321.958 344.392 320.81C344.62 319.662 344.503 318.472 344.056 317.39C343.608 316.309 342.851 315.384 341.879 314.734C340.907 314.083 339.764 313.736 338.595 313.736C337.028 313.739 335.526 314.363 334.418 315.473C333.311 316.582 332.687 318.086 332.684 319.655Z" fill="#FAFAFA"/>
<path d="M323.001 317.924C323.001 319.094 323.347 320.239 323.997 321.212C324.646 322.186 325.569 322.944 326.649 323.392C327.729 323.84 328.918 323.957 330.064 323.729C331.211 323.501 332.264 322.937 333.091 322.109C333.917 321.281 334.48 320.227 334.708 319.078C334.937 317.93 334.819 316.74 334.372 315.658C333.925 314.577 333.167 313.652 332.195 313.002C331.223 312.352 330.08 312.004 328.911 312.004C327.344 312.004 325.84 312.628 324.732 313.738C323.623 314.848 323.001 316.354 323.001 317.924Z" fill="#FAFAFA"/>
<path d="M373.755 318.69C373.755 318.69 372.948 330.234 341.854 330.234C310.76 330.234 309.953 318.69 309.953 318.69H373.755Z" fill="#F5F5F5"/>
<path d="M286.562 266.204C286.562 266.204 285.273 277.749 235.996 277.749C186.719 277.749 185.44 266.204 185.44 266.204H286.562Z" fill="white"/>
<path d="M266 391C153.777 391 62.8032 385.681 62.8032 379.12C62.8032 372.558 153.777 367.239 266 367.239C378.222 367.239 469.197 372.558 469.197 379.12C469.197 385.681 378.222 391 266 391Z" fill="#F5F5F5"/>
<path d="M374.026 221.785C351.86 199.587 351.86 163.598 374.026 141.4C396.192 119.202 432.131 119.202 454.297 141.4C476.463 163.598 476.463 199.587 454.297 221.785C432.131 243.983 396.192 243.983 374.026 221.785Z" fill="#407BFF"/>
<path opacity="0.4" d="M374.026 221.785C351.86 199.587 351.86 163.598 374.026 141.4C396.192 119.202 432.131 119.202 454.297 141.4C476.463 163.598 476.463 199.587 454.297 221.785C432.131 243.983 396.192 243.983 374.026 221.785Z" fill="black"/>
<path opacity="0.2" d="M367.172 189.619C362.746 163.633 380.194 138.974 406.142 134.541C432.091 130.109 456.715 147.581 461.141 173.567C465.567 199.553 448.12 224.212 422.171 228.644C396.222 233.077 371.598 215.604 367.172 189.619Z" fill="black"/>
<path d="M364.894 186.164C363.126 160.858 382.177 138.907 407.447 137.135C432.717 135.364 454.637 154.443 456.406 179.749C458.175 205.055 439.123 227.006 413.853 228.777C388.583 230.549 366.663 211.47 364.894 186.164Z" fill="#407BFF"/>
<path opacity="0.4" d="M364.894 186.164C363.126 160.858 382.177 138.907 407.447 137.135C432.717 135.364 454.637 154.443 456.406 179.749C458.175 205.055 439.123 227.006 413.853 228.777C388.583 230.549 366.663 211.47 364.894 186.164Z" fill="black"/>
<path d="M395.313 177.218L392.326 190.179C392.199 190.674 392.176 191.19 392.259 191.694C392.342 192.198 392.529 192.679 392.808 193.107C393.079 193.544 393.434 193.923 393.854 194.22C394.273 194.518 394.748 194.728 395.25 194.839L406.631 197.473L404.535 206.593C404.412 207.086 404.393 207.599 404.479 208.1C404.566 208.601 404.756 209.078 405.038 209.5C405.309 209.93 405.666 210.3 406.086 210.585C406.506 210.87 406.981 211.066 407.48 211.158C407.98 211.284 408.5 211.308 409.01 211.228C409.519 211.149 410.007 210.968 410.446 210.697C410.883 210.439 411.261 210.093 411.557 209.681C411.853 209.269 412.06 208.8 412.165 208.304L414.261 199.079L425.547 201.692C426.034 201.809 426.539 201.827 427.033 201.744C427.526 201.661 427.998 201.479 428.419 201.209C428.857 200.952 429.237 200.606 429.534 200.194C429.832 199.783 430.041 199.313 430.148 198.816C430.267 198.326 430.286 197.816 430.203 197.319C430.12 196.821 429.938 196.345 429.666 195.92C429.407 195.485 429.061 195.109 428.65 194.814C428.239 194.52 427.771 194.314 427.277 194.209L400.867 188.111L402.104 182.727L428.44 188.804C428.928 188.929 429.435 188.953 429.932 188.875C430.43 188.798 430.906 188.62 431.332 188.353C431.77 188.09 432.148 187.738 432.442 187.321C432.736 186.904 432.94 186.429 433.041 185.928L436.017 173.02C436.246 172.027 436.072 170.985 435.534 170.121C434.995 169.257 434.136 168.642 433.145 168.412L421.911 165.82L424.007 156.69C424.128 156.207 424.152 155.704 424.077 155.212C424.001 154.72 423.828 154.248 423.567 153.824C423.29 153.365 422.919 152.97 422.478 152.666C422.037 152.362 421.537 152.156 421.01 152.061C420.525 151.943 420.021 151.925 419.53 152.008C419.038 152.091 418.568 152.273 418.149 152.544C417.718 152.809 417.346 153.159 417.054 153.572C416.762 153.985 416.557 154.453 416.451 154.947L414.355 164.067L402.827 161.423C402.328 161.302 401.81 161.283 401.304 161.368C400.798 161.453 400.314 161.639 399.882 161.916C399.445 162.168 399.064 162.508 398.765 162.914C398.465 163.32 398.253 163.785 398.142 164.277C397.921 165.292 398.106 166.354 398.656 167.234C399.207 168.115 400.079 168.745 401.087 168.99L427.497 175.087L426.344 180.44L400.029 174.363C399.53 174.242 399.012 174.223 398.506 174.308C398 174.393 397.516 174.579 397.084 174.856C396.639 175.103 396.252 175.441 395.947 175.848C395.642 176.255 395.426 176.722 395.313 177.218Z" fill="#407BFF"/>
<g opacity="0.7">
<path opacity="0.7" d="M395.313 177.218L392.326 190.179C392.199 190.674 392.176 191.19 392.259 191.694C392.342 192.198 392.529 192.679 392.808 193.107C393.079 193.544 393.434 193.923 393.854 194.22C394.273 194.518 394.748 194.728 395.25 194.839L406.631 197.473L404.535 206.593C404.412 207.086 404.393 207.599 404.479 208.1C404.566 208.601 404.756 209.078 405.038 209.5C405.309 209.93 405.666 210.3 406.086 210.585C406.506 210.87 406.981 211.066 407.48 211.158C407.98 211.284 408.5 211.308 409.01 211.228C409.519 211.149 410.007 210.968 410.446 210.697C410.883 210.439 411.261 210.093 411.557 209.681C411.853 209.269 412.06 208.8 412.165 208.304L414.261 199.079L425.547 201.692C426.034 201.809 426.539 201.827 427.033 201.744C427.526 201.661 427.998 201.479 428.419 201.209C428.857 200.952 429.237 200.606 429.534 200.194C429.832 199.783 430.041 199.313 430.148 198.816C430.267 198.326 430.286 197.816 430.203 197.319C430.12 196.821 429.938 196.345 429.666 195.92C429.407 195.485 429.061 195.109 428.65 194.814C428.239 194.52 427.771 194.314 427.277 194.209L400.867 188.111L402.104 182.727L428.44 188.804C428.928 188.929 429.435 188.953 429.932 188.875C430.43 188.798 430.906 188.62 431.332 188.353C431.77 188.09 432.148 187.738 432.442 187.321C432.736 186.904 432.94 186.429 433.041 185.928L436.017 173.02C436.246 172.027 436.072 170.985 435.534 170.121C434.995 169.257 434.136 168.642 433.145 168.412L421.911 165.82L424.007 156.69C424.128 156.207 424.152 155.704 424.077 155.212C424.001 154.72 423.828 154.248 423.567 153.824C423.29 153.365 422.919 152.97 422.478 152.666C422.037 152.362 421.537 152.156 421.01 152.061C420.525 151.943 420.021 151.925 419.53 152.008C419.038 152.091 418.568 152.273 418.149 152.544C417.718 152.809 417.346 153.159 417.054 153.572C416.762 153.985 416.557 154.453 416.451 154.947L414.355 164.067L402.827 161.423C402.328 161.302 401.81 161.283 401.304 161.368C400.798 161.453 400.314 161.639 399.882 161.916C399.445 162.168 399.064 162.508 398.765 162.914C398.465 163.32 398.253 163.785 398.142 164.277C397.921 165.292 398.106 166.354 398.656 167.234C399.207 168.115 400.079 168.745 401.087 168.99L427.497 175.087L426.344 180.44L400.029 174.363C399.53 174.242 399.012 174.223 398.506 174.308C398 174.393 397.516 174.579 397.084 174.856C396.639 175.103 396.252 175.441 395.947 175.848C395.642 176.255 395.426 176.722 395.313 177.218Z" fill="white"/>
</g>
<path d="M293.04 136.39C278.918 119.656 281.017 94.6254 297.728 80.4836C314.438 66.3419 339.433 68.4437 353.554 85.1782C367.676 101.913 365.577 126.943 348.867 141.085C332.156 155.226 307.161 153.125 293.04 136.39Z" fill="#407BFF"/>
<path opacity="0.4" d="M293.04 136.39C278.918 119.656 281.017 94.6254 297.728 80.4836C314.438 66.3419 339.433 68.4437 353.554 85.1782C367.676 101.913 365.577 126.943 348.867 141.085C332.156 155.226 307.161 153.125 293.04 136.39Z" fill="black"/>
<path opacity="0.2" d="M297.657 131.978C285.952 117.799 287.942 96.802 302.101 85.0802C316.26 73.3584 337.227 75.3506 348.932 89.5299C360.637 103.709 358.648 124.706 344.489 136.428C330.33 148.15 309.362 146.158 297.657 131.978Z" fill="black"/>
<path d="M296.653 132.327C285.944 118.295 288.622 98.2255 302.634 87.501C316.646 76.7766 336.686 79.4579 347.395 93.49C358.105 107.522 355.427 127.591 341.415 138.316C327.403 149.04 307.362 146.359 296.653 132.327Z" fill="#407BFF"/>
<path opacity="0.4" d="M296.653 132.327C285.944 118.295 288.622 98.2255 302.634 87.501C316.646 76.7766 336.686 79.4579 347.395 93.49C358.105 107.522 355.427 127.591 341.415 138.316C327.403 149.04 307.362 146.359 296.653 132.327Z" fill="black"/>
<path d="M310.205 114.038L312.458 123.043C312.54 123.385 312.692 123.707 312.905 123.987C313.118 124.267 313.387 124.499 313.694 124.669C314.005 124.859 314.351 124.983 314.711 125.036C315.072 125.088 315.439 125.067 315.79 124.974L323.64 122.99L325.233 129.287C325.314 129.631 325.466 129.955 325.679 130.236C325.892 130.518 326.161 130.753 326.47 130.924C326.767 131.109 327.098 131.231 327.444 131.284C327.79 131.336 328.143 131.317 328.482 131.229C328.83 131.147 329.159 130.996 329.449 130.785C329.739 130.574 329.983 130.308 330.169 130.001C330.358 129.701 330.484 129.366 330.538 129.016C330.592 128.665 330.573 128.308 330.483 127.965L328.88 121.563L336.74 119.642C337.081 119.561 337.401 119.411 337.682 119.201C337.963 118.992 338.199 118.728 338.375 118.425C338.564 118.127 338.69 117.794 338.744 117.445C338.798 117.097 338.78 116.74 338.689 116.399C338.611 116.054 338.463 115.729 338.253 115.444C338.044 115.159 337.779 114.919 337.474 114.741C337.172 114.557 336.837 114.436 336.487 114.385C336.138 114.335 335.782 114.356 335.44 114.447L317.1 119.055L316.157 115.318L334.445 110.722C334.787 110.645 335.11 110.498 335.393 110.29C335.677 110.083 335.914 109.819 336.09 109.515C336.28 109.215 336.404 108.879 336.455 108.528C336.506 108.177 336.481 107.82 336.384 107.479L334.141 98.5055C334.056 98.1635 333.905 97.8416 333.696 97.5585C333.486 97.2754 333.223 97.0367 332.921 96.8561C332.619 96.6756 332.284 96.5568 331.936 96.5066C331.587 96.4565 331.233 96.4759 330.892 96.5639L323.116 98.516L321.523 92.219C321.446 91.8636 321.296 91.528 321.083 91.2333C320.87 90.9387 320.599 90.6914 320.286 90.507C319.973 90.3227 319.625 90.2052 319.264 90.1621C318.904 90.119 318.538 90.1511 318.19 90.2564C317.853 90.3348 317.535 90.4825 317.257 90.6903C316.979 90.898 316.747 91.1613 316.576 91.4634C316.391 91.7626 316.268 92.0965 316.216 92.4448C316.164 92.793 316.183 93.1483 316.273 93.4889L317.865 99.7859L309.901 101.79C309.551 101.874 309.222 102.028 308.934 102.242C308.646 102.457 308.404 102.728 308.224 103.039C308.033 103.334 307.905 103.665 307.847 104.012C307.789 104.359 307.803 104.713 307.889 105.054C307.976 105.404 308.132 105.733 308.348 106.021C308.564 106.309 308.835 106.552 309.146 106.734C309.456 106.926 309.801 107.054 310.162 107.108C310.522 107.162 310.89 107.142 311.242 107.048L329.593 102.441L330.515 106.156L312.238 110.743C311.888 110.826 311.559 110.98 311.271 111.195C310.983 111.409 310.741 111.68 310.561 111.992C310.359 112.287 310.223 112.623 310.161 112.976C310.1 113.329 310.115 113.691 310.205 114.038Z" fill="#407BFF"/>
<g opacity="0.7">
<path opacity="0.7" d="M310.205 114.038L312.458 123.043C312.54 123.385 312.692 123.707 312.905 123.987C313.118 124.267 313.387 124.499 313.694 124.669C314.005 124.859 314.351 124.983 314.711 125.036C315.072 125.088 315.439 125.067 315.79 124.974L323.64 122.99L325.233 129.287C325.314 129.631 325.466 129.955 325.679 130.236C325.892 130.518 326.161 130.753 326.47 130.924C326.767 131.109 327.098 131.231 327.444 131.284C327.79 131.336 328.143 131.317 328.482 131.229C328.83 131.147 329.159 130.996 329.449 130.785C329.739 130.574 329.983 130.308 330.169 130.001C330.358 129.701 330.484 129.366 330.538 129.016C330.592 128.665 330.573 128.308 330.483 127.965L328.88 121.563L336.74 119.642C337.081 119.561 337.401 119.411 337.682 119.201C337.963 118.992 338.199 118.728 338.375 118.425C338.564 118.127 338.69 117.794 338.744 117.445C338.798 117.097 338.78 116.74 338.689 116.399C338.611 116.054 338.463 115.729 338.253 115.444C338.044 115.159 337.779 114.919 337.474 114.741C337.172 114.557 336.837 114.436 336.487 114.385C336.138 114.335 335.782 114.356 335.44 114.447L317.1 119.055L316.157 115.318L334.445 110.722C334.787 110.645 335.11 110.498 335.393 110.29C335.677 110.083 335.914 109.819 336.09 109.515C336.28 109.215 336.404 108.879 336.455 108.528C336.506 108.177 336.481 107.82 336.384 107.479L334.141 98.5055C334.056 98.1635 333.905 97.8416 333.696 97.5585C333.486 97.2754 333.223 97.0367 332.921 96.8561C332.619 96.6756 332.284 96.5568 331.936 96.5066C331.587 96.4565 331.233 96.4759 330.892 96.5639L323.116 98.516L321.523 92.219C321.446 91.8636 321.296 91.528 321.083 91.2333C320.87 90.9387 320.599 90.6914 320.286 90.507C319.973 90.3227 319.625 90.2052 319.264 90.1621C318.904 90.119 318.538 90.1511 318.19 90.2564C317.853 90.3348 317.535 90.4825 317.257 90.6903C316.979 90.898 316.747 91.1613 316.576 91.4634C316.391 91.7626 316.268 92.0965 316.216 92.4448C316.164 92.793 316.183 93.1483 316.273 93.4889L317.865 99.7859L309.901 101.79C309.551 101.874 309.222 102.028 308.934 102.242C308.646 102.457 308.404 102.728 308.224 103.039C308.033 103.334 307.905 103.665 307.847 104.012C307.789 104.359 307.803 104.713 307.889 105.054C307.976 105.404 308.132 105.733 308.348 106.021C308.564 106.309 308.835 106.552 309.146 106.734C309.456 106.926 309.801 107.054 310.162 107.108C310.522 107.162 310.89 107.142 311.242 107.048L329.593 102.441L330.515 106.156L312.238 110.743C311.888 110.826 311.559 110.98 311.271 111.195C310.983 111.409 310.741 111.68 310.561 111.992C310.359 112.287 310.223 112.623 310.161 112.976C310.1 113.329 310.115 113.691 310.205 114.038Z" fill="white"/>
</g>
<path d="M419.783 350.5H420.831V362.349H419.783V350.5Z" fill="#407BFF"/>
<path opacity="0.1" d="M419.783 350.5H420.831V362.349H419.783V350.5Z" fill="black"/>
<path d="M130.598 186.223H401.391C410.102 186.223 417.163 193.294 417.163 202.017V360.754C417.163 369.477 410.102 376.549 401.391 376.549H130.598C121.887 376.549 114.826 369.477 114.826 360.754V202.017C114.826 193.294 121.887 186.223 130.598 186.223Z" fill="#5181EF"/>
<path opacity="0.2" d="M163.767 252.498C152.961 252.498 144.201 243.726 144.201 232.904C144.201 222.083 152.961 213.31 163.767 213.31C174.573 213.31 183.333 222.083 183.333 232.904C183.333 243.726 174.573 252.498 163.767 252.498Z" fill="black"/>
<path d="M189.024 252.498C178.218 252.498 169.458 243.726 169.458 232.904C169.458 222.083 178.218 213.31 189.024 213.31C199.83 213.31 208.59 222.083 208.59 232.904C208.59 243.726 199.83 252.498 189.024 252.498Z" fill="#407BFF"/>
<path d="M334.392 252.498H380.997C384.748 252.498 387.788 255.543 387.788 259.299V289.808C387.788 293.564 384.748 296.609 380.997 296.609H334.392C330.642 296.609 327.601 293.564 327.601 289.808V259.299C327.601 255.543 330.642 252.498 334.392 252.498Z" fill="#407BFF"/>
<path opacity="0.3" d="M334.392 252.498H380.997C384.748 252.498 387.788 255.543 387.788 259.299V289.808C387.788 293.564 384.748 296.609 380.997 296.609H334.392C330.642 296.609 327.601 293.564 327.601 289.808V259.299C327.601 255.543 330.642 252.498 334.392 252.498Z" fill="white"/>
<path d="M302.145 208.503H382.978C385.634 208.503 387.788 210.658 387.788 213.315C387.788 215.973 385.634 218.127 382.978 218.127H302.145C299.489 218.127 297.335 215.973 297.335 213.315C297.335 210.658 299.489 208.503 302.145 208.503Z" fill="#407BFF"/>
<path opacity="0.3" d="M302.145 208.503H382.978C385.634 208.503 387.788 210.658 387.788 213.315C387.788 215.973 385.634 218.127 382.978 218.127H302.145C299.489 218.127 297.335 215.973 297.335 213.315C297.335 210.658 299.489 208.503 302.145 208.503Z" fill="white"/>
<path d="M344.38 318.501H380.735C384.63 318.501 387.788 321.663 387.788 325.564V332.165C387.788 336.066 384.63 339.228 380.735 339.228H344.38C340.485 339.228 337.327 336.066 337.327 332.165V325.564C337.327 321.663 340.485 318.501 344.38 318.501Z" fill="#407BFF"/>
<path opacity="0.3" d="M344.38 318.501H380.735C384.63 318.501 387.788 321.663 387.788 325.564V332.165C387.788 336.066 384.63 339.228 380.735 339.228H344.38C340.485 339.228 337.327 336.066 337.327 332.165V325.564C337.327 321.663 340.485 318.501 344.38 318.501Z" fill="white"/>
<path d="M280.012 318.501H316.367C320.262 318.501 323.42 321.663 323.42 325.564V332.165C323.42 336.066 320.262 339.228 316.367 339.228H280.012C276.116 339.228 272.959 336.066 272.959 332.165V325.564C272.959 321.663 276.116 318.501 280.012 318.501Z" fill="#407BFF"/>
<path opacity="0.3" d="M280.012 318.501H316.367C320.262 318.501 323.42 321.663 323.42 325.564V332.165C323.42 336.066 320.262 339.228 316.367 339.228H280.012C276.116 339.228 272.959 336.066 272.959 332.165V325.564C272.959 321.663 276.116 318.501 280.012 318.501Z" fill="white"/>
<path d="M215.633 318.501H251.988C255.883 318.501 259.041 321.663 259.041 325.564V332.165C259.041 336.066 255.883 339.228 251.988 339.228H215.633C211.738 339.228 208.58 336.066 208.58 332.165V325.564C208.58 321.663 211.738 318.501 215.633 318.501Z" fill="#407BFF"/>
<path opacity="0.3" d="M215.633 318.501H251.988C255.883 318.501 259.041 321.663 259.041 325.564V332.165C259.041 336.066 255.883 339.228 251.988 339.228H215.633C211.738 339.228 208.58 336.066 208.58 332.165V325.564C208.58 321.663 211.738 318.501 215.633 318.501Z" fill="white"/>
<path d="M151.265 318.501H187.62C191.515 318.501 194.673 321.663 194.673 325.564V332.165C194.673 336.066 191.515 339.228 187.62 339.228H151.265C147.369 339.228 144.212 336.066 144.212 332.165V325.564C144.212 321.663 147.369 318.501 151.265 318.501Z" fill="#407BFF"/>
<path opacity="0.3" d="M151.265 318.501H187.62C191.515 318.501 194.673 321.663 194.673 325.564V332.165C194.673 336.066 191.515 339.228 187.62 339.228H151.265C147.369 339.228 144.212 336.066 144.212 332.165V325.564C144.212 321.663 147.369 318.501 151.265 318.501Z" fill="white"/>
<path d="M220.936 117.355C223.42 124.376 226.176 131.166 229.1 137.956C232.059 144.861 235.455 151.571 239.266 158.043C239.779 158.873 240.314 159.702 240.869 160.531L241.278 161.15L241.833 161.916C242.21 162.399 242.567 162.819 242.881 163.228C244.202 164.702 245.601 166.103 247.073 167.426C249.871 170.018 252.722 172.369 255.604 174.688C261.389 179.285 267.3 183.588 273.42 187.671L277.077 183.126L261.672 167.919C259.125 165.39 256.599 162.84 254.241 160.289C253.078 159.019 251.946 157.718 251.014 156.522C250.783 156.228 250.584 155.934 250.406 155.682L250.186 155.325L249.882 154.779C249.473 154.055 249.043 153.352 248.645 152.607C245.438 146.572 242.609 140.013 239.884 133.359C237.159 126.706 234.539 119.999 232.024 113.345L220.936 117.355Z" fill="#E4897B"/>
<path d="M217.991 112.296C215.612 119.265 229.593 139.761 229.593 139.761L242.944 132.32C240.669 125.925 237.98 119.685 234.895 113.639C230.221 104.782 220.601 104.645 217.991 112.296Z" fill="#407BFF"/>
<path opacity="0.7" d="M217.991 112.296C215.612 119.265 229.593 139.761 229.593 139.761L242.944 132.32C240.669 125.925 237.98 119.685 234.895 113.639C230.221 104.782 220.601 104.645 217.991 112.296Z" fill="white"/>
<path opacity="0.31" d="M217.792 113.167C220.789 111.729 224.237 112.936 227.874 118.687C231.51 124.439 234.602 134.041 234.937 136.781L229.582 139.751C229.582 139.751 216.681 120.818 217.792 113.167Z" fill="#407BFF"/>
<path d="M227.035 106.964C227.035 106.964 237.012 130.463 229.823 174.216H188.27C187.756 167.825 190.691 136.665 183.491 106.566C188.065 105.674 192.694 105.085 197.345 104.803C203.227 104.466 209.123 104.466 215.004 104.803C219.064 105.215 223.086 105.938 227.035 106.964Z" fill="#407BFF"/>
<path opacity="0.7" d="M227.035 106.964C227.035 106.964 237.012 130.463 229.823 174.216H188.27C187.756 167.825 190.691 136.665 183.491 106.566C188.065 105.674 192.694 105.085 197.345 104.803C203.227 104.466 209.123 104.466 215.004 104.803C219.064 105.215 223.086 105.938 227.035 106.964Z" fill="white"/>
<path d="M173.556 360.638L179.708 366.158L191.435 353.932L185.273 348.411L173.556 360.638Z" fill="#E4897B"/>
<path d="M194.652 372.12H202.418L203.424 354.11H195.658L194.652 372.12Z" fill="#E4897B"/>
<path d="M191.424 353.932L185.388 360.239L179.226 354.708L185.262 348.411L191.424 353.932Z" fill="#CE6F64"/>
<path d="M195.658 354.11H203.424L202.9 363.398H195.134L195.658 354.11Z" fill="#CE6F64"/>
<path d="M229.823 174.216C229.823 174.216 238.008 230.952 240.796 261.828C243.038 286.607 189.538 360.481 189.538 360.481L179.194 350.731C179.194 350.731 218.264 284.497 215.256 256.916C212.342 230.207 202.47 174.185 202.47 174.185L229.823 174.216Z" fill="#305CBF"/>
<path opacity="0.2" d="M215.256 256.948C213.757 243.189 210.404 221.632 207.522 203.98C209.031 201.02 213.265 195.028 213.265 195.028C217.058 208.157 225.306 257.651 213.537 324.494C201.276 344.287 189.538 360.512 189.538 360.512L187.934 334.988C199.263 313.642 217.341 276.017 215.256 256.948Z" fill="black"/>
<path d="M215.046 174.216C215.046 174.216 215.78 233.67 214.522 255.951C213.149 280.341 206.233 361.163 206.233 361.163H192.001C192.001 361.163 192.43 282.314 191.592 258.176C190.659 231.938 188.249 174.216 188.249 174.216H215.046Z" fill="#305CBF"/>
<path d="M202.827 371.228H194.097C193.951 371.222 193.809 371.274 193.701 371.372C193.593 371.47 193.528 371.607 193.52 371.752L193.091 378.669C193.089 378.849 193.123 379.028 193.191 379.195C193.259 379.363 193.359 379.515 193.485 379.644C193.612 379.772 193.762 379.875 193.928 379.945C194.094 380.016 194.273 380.052 194.453 380.054C197.492 380.001 198.949 379.823 202.785 379.823C205.143 379.823 215.182 380.075 218.442 380.075C221.701 380.075 221.586 376.842 220.234 376.549C214.04 375.237 206.358 373.4 204.157 371.7C203.778 371.4 203.31 371.234 202.827 371.228Z" fill="#263238"/>
<path d="M181.405 363.944L173.923 358.896C173.801 358.799 173.649 358.746 173.493 358.746C173.337 358.746 173.186 358.799 173.063 358.896L167.341 364.679C167.23 364.806 167.147 364.956 167.1 365.118C167.053 365.281 167.042 365.452 167.068 365.619C167.094 365.786 167.156 365.946 167.25 366.086C167.345 366.226 167.469 366.344 167.614 366.431C172.393 370.115 175.841 372.896 178.565 375.961C181.709 379.54 183.407 380.054 190.743 380.054C194.139 380.054 196.057 377.189 194.673 376.748C182.453 372.875 185.723 371.186 182.747 365.508C182.436 364.883 181.975 364.346 181.405 363.944Z" fill="#263238"/>
<path d="M275.317 182.15L283.418 182.434L281.72 188.794C281.72 188.794 273.252 189.549 272.498 186.988L275.317 182.15Z" fill="#E4897B"/>
<path d="M292.158 186.222L286.478 189.539L281.72 188.794L283.418 182.434L292.158 186.222Z" fill="#E4897B"/>
<path opacity="0.31" d="M192.776 113.996C193.636 118.95 192.493 130.788 188.249 144.494C187.917 132.751 186.553 121.06 184.172 109.557V109.494C186.897 109.221 191.948 109.347 192.776 113.996Z" fill="#407BFF"/>
<path d="M198.404 84.8833C199.714 90.5715 201.192 101.004 197.356 104.824C197.356 104.824 199.012 109.536 209.576 109.536C221.188 109.536 215.015 104.824 215.015 104.824C208.622 103.312 208.622 98.6002 209.576 94.1818L198.404 84.8833Z" fill="#E4897B"/>
<path d="M209.869 109.515L213.013 112.863L211.473 116.095L208.968 116.211L206.83 113.125L209.869 109.515Z" fill="#407BFF"/>
<path d="M202.952 88.6717L209.565 94.1501C209.327 95.1847 209.18 96.2382 209.125 97.2985C206.694 96.9522 203.277 94.2865 202.931 91.7467C202.746 90.7294 202.753 89.6864 202.952 88.6717Z" fill="#CE6F64"/>
<path d="M212.185 65.5934C216.157 66.9472 219.333 77.4947 214.7 80.2863C210.068 83.078 204.64 63.0221 212.185 65.5934Z" fill="#263238"/>
<path d="M195.92 78.9219C198.289 86.2684 199.295 90.7078 204.074 93.7198C205.615 94.7121 207.399 95.2633 209.23 95.3139C211.062 95.3645 212.873 94.9126 214.467 94.0069C216.061 93.1013 217.377 91.7765 218.274 90.1757C219.17 88.575 219.612 86.7593 219.553 84.925C219.458 77.8619 215.602 66.9891 207.48 65.6248C205.729 65.2864 203.921 65.4145 202.235 65.9962C200.55 66.578 199.046 67.5929 197.876 68.9395C196.705 70.286 195.908 71.9169 195.565 73.6689C195.222 75.4208 195.344 77.2323 195.92 78.9219Z" fill="#E4897B"/>
<path d="M190.052 66.6429C192.42 72.3731 186.908 67.5874 188.333 74.3882C189.255 78.817 197.241 89.4274 200.322 88.4619C203.403 87.4963 203.372 79.9715 199.442 74.6505C197.178 71.5965 202.072 68.1332 213.066 68.5005C224.059 68.8678 230.703 62.6758 216.094 58.1315C216.094 58.1315 221.481 61.28 218.285 62.3295C213.757 64.0191 185.304 55.1614 190.052 66.6429Z" fill="#263238"/>
<path d="M192.148 69.2665C192.263 69.2665 189.685 68.6263 188.312 64.019C188.312 64.0925 188.762 70.8827 192.148 69.2665Z" fill="#263238"/>
<path d="M212.72 59.1496C219.479 61.2486 216.681 63.61 213.883 64.1977L207.469 61.6789C217.215 62.9698 212.72 59.1496 212.72 59.1496Z" fill="#263238"/>
<path d="M194.621 87.8952C196.026 89.2631 197.901 90.0404 199.861 90.0677C202.449 90.0677 203.005 87.6118 201.611 85.5548C200.374 83.7077 197.545 81.4828 195.26 82.4798C192.975 83.4768 192.902 86.2055 194.621 87.8952Z" fill="#E4897B"/>
<path d="M207.857 78.5126C208.014 79.1213 208.465 79.5621 208.905 79.4572C209.345 79.3522 209.502 78.796 209.345 78.1873C209.188 77.5786 208.737 77.1378 208.297 77.2532C207.857 77.3687 207.7 77.9039 207.857 78.5126Z" fill="#263238"/>
<path d="M214.774 76.9909C214.931 77.5997 215.382 78.0404 215.822 77.9355C216.262 77.8305 216.419 77.2848 216.262 76.6761C216.105 76.0674 215.665 75.6266 215.214 75.7316C214.763 75.8365 214.648 76.3822 214.774 76.9909Z" fill="#263238"/>
<path d="M212.657 77.7781C213.848 79.4772 215.258 81.0122 216.849 82.3434C216.499 82.7328 216.068 83.0408 215.586 83.2457C215.105 83.4506 214.584 83.5474 214.061 83.5293L212.657 77.7781Z" fill="#DE5753"/>
<path d="M211.504 85.7438C211.938 85.7433 212.37 85.694 212.793 85.5969C212.84 85.5845 212.88 85.5548 212.905 85.5138C212.93 85.4728 212.939 85.4237 212.929 85.3765C212.917 85.3299 212.887 85.2899 212.846 85.2645C212.805 85.2392 212.756 85.2304 212.709 85.2401C211.937 85.4122 211.137 85.4072 210.367 85.2254C209.598 85.0437 208.879 84.6899 208.266 84.1906C208.231 84.1566 208.184 84.1376 208.135 84.1376C208.086 84.1376 208.039 84.1566 208.004 84.1906C207.97 84.2258 207.951 84.2728 207.951 84.3217C207.951 84.3707 207.97 84.4177 208.004 84.4529C208.977 85.2919 210.22 85.7503 211.504 85.7438Z" fill="#263238"/>
<path d="M205.111 76.76C205.183 76.7612 205.253 76.7409 205.313 76.7015C205.373 76.6622 205.419 76.6058 205.446 76.5396C205.619 76.1186 205.889 75.7452 206.236 75.4511C206.583 75.157 206.995 74.9508 207.438 74.8499C207.486 74.8435 207.533 74.8275 207.575 74.8028C207.617 74.7781 207.654 74.7453 207.683 74.7062C207.712 74.6671 207.733 74.6225 207.745 74.5751C207.757 74.5277 207.76 74.4784 207.752 74.4301C207.737 74.3335 207.684 74.2467 207.606 74.1879C207.528 74.1292 207.43 74.1032 207.333 74.1153C206.768 74.2305 206.24 74.4819 205.795 74.8477C205.349 75.2134 204.999 75.6825 204.776 76.2143C204.755 76.2582 204.744 76.3058 204.742 76.3543C204.74 76.4028 204.749 76.4511 204.766 76.4963C204.784 76.5415 204.811 76.5826 204.845 76.6171C204.879 76.6516 204.92 76.6788 204.964 76.697C205.008 76.7285 205.058 76.75 205.111 76.76Z" fill="#263238"/>
<path d="M217.111 73.9789C217.195 73.9782 217.276 73.9486 217.341 73.8949C217.417 73.8316 217.464 73.7412 217.474 73.6432C217.484 73.5452 217.455 73.4472 217.394 73.3702C217.025 72.9101 216.555 72.5412 216.02 72.2919C215.486 72.0426 214.902 71.9196 214.313 71.9324C214.264 71.9363 214.217 71.9498 214.174 71.972C214.131 71.9943 214.093 72.0248 214.062 72.0618C214.031 72.0989 214.007 72.1418 213.993 72.188C213.978 72.2342 213.973 72.2829 213.977 72.3312C213.98 72.38 213.992 72.4278 214.014 72.4716C214.036 72.5153 214.066 72.5542 214.104 72.5857C214.141 72.6171 214.184 72.6406 214.231 72.6546C214.278 72.6686 214.327 72.6728 214.376 72.667C214.847 72.662 215.313 72.7654 215.738 72.9692C216.163 73.173 216.536 73.4717 216.828 73.8424C216.861 73.8853 216.904 73.9199 216.953 73.9436C217.003 73.9672 217.056 73.9793 217.111 73.9789Z" fill="#263238"/>
<path d="M181.479 111.929C180.661 113.199 179.98 114.322 179.288 115.539C178.597 116.756 177.937 117.932 177.287 119.149C176.008 121.574 174.803 124.05 173.703 126.58C171.394 131.758 169.662 137.174 168.536 142.731L168.431 143.267L168.379 143.529L168.305 143.97C168.216 144.557 168.171 145.15 168.169 145.743C168.18 146.738 168.285 147.729 168.484 148.703C168.838 150.31 169.351 151.878 170.014 153.384C171.19 156.022 172.593 158.554 174.206 160.951C177.254 165.507 180.721 169.769 184.56 173.681L189.119 170.018C186.583 165.589 184.057 160.993 181.94 156.49C180.899 154.337 180.01 152.114 179.278 149.836C178.979 148.887 178.775 147.909 178.67 146.919C178.634 146.595 178.634 146.267 178.67 145.943C178.67 145.848 178.67 145.764 178.733 145.754C178.796 145.743 178.733 145.754 178.733 145.701L178.796 145.492L178.922 145.061C179.584 142.746 180.371 140.469 181.28 138.24C182.202 135.962 183.229 133.695 184.308 131.439C185.388 129.182 186.551 126.957 187.746 124.733C188.333 123.62 188.951 122.518 189.569 121.427L191.414 118.278L181.479 111.929Z" fill="#E4897B"/>
<path d="M205.572 372.571C206.095 372.623 206.619 372.477 207.039 372.161C207.158 372.03 207.241 371.87 207.282 371.698C207.322 371.525 207.318 371.345 207.27 371.175C207.247 371.06 207.195 370.953 207.12 370.863C207.045 370.773 206.949 370.704 206.84 370.661C205.887 370.283 203.696 371.794 203.445 371.962C203.414 371.981 203.39 372.01 203.376 372.044C203.363 372.078 203.361 372.116 203.371 372.151C203.377 372.186 203.393 372.219 203.417 372.245C203.441 372.272 203.473 372.29 203.508 372.298C204.184 372.461 204.876 372.552 205.572 372.571ZM206.484 370.965C206.557 370.953 206.631 370.953 206.704 370.965C206.757 370.984 206.804 371.018 206.84 371.062C206.875 371.107 206.897 371.16 206.903 371.217C206.941 371.327 206.95 371.445 206.928 371.559C206.906 371.673 206.854 371.78 206.777 371.867C206.421 372.224 205.405 372.266 204.011 371.993C204.752 371.479 205.596 371.131 206.484 370.975V370.965Z" fill="white"/>
<path d="M203.55 372.308H203.644C204.42 371.847 205.572 370.209 205.394 369.37C205.363 369.216 205.281 369.077 205.161 368.976C205.041 368.875 204.891 368.818 204.734 368.814C204.596 368.796 204.455 368.809 204.323 368.853C204.19 368.896 204.069 368.969 203.969 369.066C203.183 369.832 203.361 372.067 203.361 372.162C203.365 372.193 203.376 372.223 203.395 372.248C203.413 372.274 203.437 372.295 203.466 372.308H203.55ZM204.598 369.16H204.681C204.943 369.16 205.006 369.317 205.027 369.422C205.143 369.979 204.378 371.206 203.707 371.773C203.61 370.922 203.786 370.062 204.21 369.317C204.263 369.266 204.325 369.226 204.393 369.199C204.462 369.172 204.535 369.159 204.608 369.16H204.598Z" fill="white"/>
<path d="M186.436 368.163C186.63 368.169 186.823 368.133 187.002 368.058C187.14 368.002 187.263 367.914 187.359 367.801C187.456 367.688 187.524 367.553 187.557 367.407C187.584 367.319 187.587 367.225 187.567 367.135C187.547 367.045 187.504 366.961 187.442 366.893C186.74 366.043 183.061 366.295 182.642 366.326C182.603 366.327 182.565 366.341 182.535 366.366C182.505 366.391 182.484 366.425 182.474 366.463C182.466 366.5 182.47 366.54 182.485 366.576C182.5 366.611 182.526 366.641 182.558 366.662C183.729 367.435 185.051 367.946 186.436 368.163ZM184.214 366.631C185.503 366.631 186.855 366.757 187.159 367.124C187.177 367.152 187.186 367.185 187.186 367.218C187.186 367.252 187.177 367.284 187.159 367.313C187.141 367.404 187.102 367.488 187.043 367.56C186.984 367.631 186.909 367.687 186.824 367.722C186.237 367.963 184.916 367.565 183.25 366.673L184.214 366.631Z" fill="white"/>
<path d="M182.653 366.694C183.701 366.694 186.059 365.885 186.237 365.046C186.237 364.836 186.237 364.542 185.734 364.301C183.931 363.451 182.537 366.305 182.474 366.4C182.462 366.43 182.455 366.462 182.455 366.494C182.455 366.527 182.462 366.559 182.474 366.589C182.492 366.621 182.517 366.648 182.549 366.666C182.58 366.685 182.616 366.694 182.653 366.694ZM185.074 364.521C185.251 364.519 185.427 364.559 185.587 364.637C185.807 364.741 185.912 364.857 185.891 364.962C185.786 365.455 184.088 366.148 182.978 366.295C183.313 365.728 184.12 364.521 185.074 364.521Z" fill="white"/>
<path d="M187.044 168.318L194.736 166.964L190.764 175.937C190.764 175.937 183.711 175.937 184.026 172.243L187.044 168.318Z" fill="#E4897B"/>
<path d="M200.552 171.477L196.916 178.719L190.806 175.937L194.778 166.964L200.552 171.477Z" fill="#E4897B"/>
<path d="M178.566 350.175L190.167 361.11L193.908 357.091L180.63 344.98L178.566 350.175Z" fill="#407BFF"/>
<path opacity="0.6" d="M178.566 350.175L190.167 361.11L193.908 357.091L180.63 344.98L178.566 350.175Z" fill="white"/>
<path d="M191.435 361.163H206.809L207.658 355.747L190.691 356.597L191.435 361.163Z" fill="#407BFF"/>
<path opacity="0.6" d="M191.435 361.163H206.809L207.658 355.747L190.691 356.597L191.435 361.163Z" fill="white"/>
<path d="M183.491 106.566C176.155 107.615 168.641 133.139 168.641 133.139L184.361 141.871C184.361 141.871 190.743 129.738 193.793 120.734C196.989 111.299 191.341 105.411 183.491 106.566Z" fill="#407BFF"/>
<path opacity="0.7" d="M183.491 106.566C176.155 107.615 168.641 133.139 168.641 133.139L184.361 141.871C184.361 141.871 190.743 129.738 193.793 120.734C196.989 111.299 191.341 105.411 183.491 106.566Z" fill="white"/>
<path opacity="0.2" d="M209.869 109.515L213.013 112.863L211.473 116.095L208.968 116.211L206.83 113.125L209.869 109.515Z" fill="black"/>
<path d="M211.2 115.518C211.2 115.518 217.163 140.254 217.394 145.397C217.719 152.471 214.763 164.55 214.763 164.55C214.763 164.55 210.571 154.507 209.712 145.177C208.853 135.847 209.492 120.755 209.104 115.518H211.2Z" fill="#407BFF"/>
<path opacity="0.2" d="M211.2 115.518C211.2 115.518 217.163 140.254 217.394 145.397C217.719 152.471 214.763 164.55 214.763 164.55C214.763 164.55 210.571 154.507 209.712 145.177C208.853 135.847 209.492 120.755 209.104 115.518H211.2Z" fill="black"/>
<path d="M209.869 109.515C208.675 111.451 207.983 113.655 207.857 115.927C207.857 115.927 194.778 111.309 195.396 104.54C195.396 104.54 197.251 103.438 198.425 102.546C198.425 102.546 198.865 106.807 209.869 109.515Z" fill="#407BFF"/>
<path opacity="0.6" d="M209.869 109.515C208.675 111.451 207.983 113.655 207.857 115.927C207.857 115.927 194.778 111.309 195.396 104.54C195.396 104.54 197.251 103.438 198.425 102.546C198.425 102.546 198.865 106.807 209.869 109.515Z" fill="white"/>
<path d="M209.869 109.515C211.071 111.348 211.937 113.38 212.426 115.518C212.426 115.518 218.348 111.509 216.566 104.824C215.481 104.386 214.363 104.035 213.223 103.774C213.223 103.774 213.998 108.098 209.869 109.515Z" fill="#407BFF"/>
<path opacity="0.6" d="M209.869 109.515C211.071 111.348 211.937 113.38 212.426 115.518C212.426 115.518 218.348 111.509 216.566 104.824C215.481 104.386 214.363 104.035 213.223 103.774C213.223 103.774 213.998 108.098 209.869 109.515Z" fill="white"/>
</g>
<defs>
<filter id="filter0_d_1141_319" x="0" y="-3.05176e-05" width="532" height="399" filterUnits="userSpaceOnUse" color-interpolation-filters="sRGB">
<feFlood flood-opacity="0" result="BackgroundImageFix"/>
<feColorMatrix in="SourceAlpha" type="matrix" values="0 0 0 0 0 0 0 0 0 0 0 0 0 0 0 0 0 0 127 0" result="hardAlpha"/>
<feOffset dy="4"/>
<feGaussianBlur stdDeviation="2"/>
<feComposite in2="hardAlpha" operator="out"/>
<feColorMatrix type="matrix" values="0 0 0 0 0 0 0 0 0 0 0 0 0 0 0 0 0 0 0.25 0"/>
<feBlend mode="normal" in2="BackgroundImageFix" result="effect1_dropShadow_1141_319"/>
<feBlend mode="normal" in="SourceGraphic" in2="effect1_dropShadow_1141_319" result="shape"/>
</filter>
</defs>
</svg>
